<svg xmlns="http://www.w3.org/2000/svg" viewBox="0 0 24 24">
  <path id="settings-icon" fill="currentColor" d="M19.14,12.94c.04-.31.06-.63.06-.94s-.02-.63-.06-.94l2.11-1.65a.5.5 0 0 0 .12-.65l-2-3.46a.5.5 0 0 0-.6-.22l-2.49 1a7.07 7.07 0 0 0-1.63-.94l-.38-2.65A.5.5 0 0 0 13.7 3h-3.4a.5.5 0 0 0-.5.42l-.38 2.65a7.07 7.07 0 0 0-1.63.94l-2.49-1a.5.5 0 0 0-.6.22l-2 3.46a.5.5 0 0 0 .12.65L4.86 11.06c-.04.31-.06.63-.06.94s.02.63.06.94l-2.11 1.65a.5.5 0 0 0-.12.65l2 3.46a.5.5 0 0 0 .6.22l2.49-1c.5.4 1.05.73 1.63.94l.38 2.65a.5.5 0 0 0 .5.42h3.4a.5.5 0 0 0 .5-.42l.38-2.65c.58-.21 1.13-.54 1.63-.94l2.49 1a.5.5 0 0 0 .6-.22l2-3.46a.5.5 0 0 0-.12-.65l-2.11-1.65ZM12 15.5A3.5 3.5 0 1 1 15.5 12 3.5 3.5 0 0 1 12 15.5Z"/>
</svg>
